<?xml version="1.0" encoding="UTF-8"?>
<svg version="1.1" xmlns="http://www.w3.org/2000/svg" width="67" height="39">
<path d="M0 0 C0 0.66 0 1.32 0 2 C0.66 1.505 1.32 1.01 2 0.5 C5.99890745 -1.49945372 8.55002433 -1.2153214 13 -1 C15.01127035 -1 17.0233529 -1.05934392 19.03125 -1.17578125 C20.1759375 -1.22089844 21.320625 -1.26601563 22.5 -1.3125 C23.6446875 -1.37050781 24.789375 -1.42851562 25.96875 -1.48828125 C29 -1 29 -1 30.87890625 1.33203125 C32.23533006 4.56003635 32.50615302 6.52923646 32 10 C30.4375 12.875 30.4375 12.875 28 15 C24.25 15.3125 24.25 15.3125 21 15 C21 16.65 21 18.3 21 20 C19.35 20 17.7 20 16 20 C16 18.02 16 16.04 16 14 C15.34 14.33 14.68 14.66 14 15 C9.55630163 15.52329267 6.12876551 15.82592598 2.4375 13.125 C1 11 1 11 1 9 C-3.455 9.495 -3.455 9.495 -8 10 C-5.36 10 -2.72 10 0 10 C0.33 11.32 0.66 12.64 1 14 C-2.46822926 15.73411463 -6.2079795 15.45800603 -10 15 C-12.5625 13.5625 -12.5625 13.5625 -14 11 C-14.53211614 7.89692273 -14.59355304 5.09705396 -14 2 C-9.66783147 -2.78032389 -5.69974257 -1.82821931 0 0 Z M22 3 C20.64381501 4.12534105 20.64381501 4.12534105 20.9375 7.0625 C20.958125 8.031875 20.97875 9.00125 21 10 C23.475 10.495 23.475 10.495 26 11 C26.33 8.69 26.66 6.38 27 4 C25.34385343 3.61781233 23.67542976 3.28604898 22 3 Z M6 9 C6.33 9.66 6.66 10.32 7 11 C11.14093698 11.20970559 11.14093698 11.20970559 15 10 C15.33 10.66 15.66 11.32 16 12 C16 11.01 16 10.02 16 9 C12.7 9 9.4 9 6 9 Z " fill="#0B9444" transform="translate(26,19)"/>
<path d="M0 0 C1.32 0 2.64 0 4 0 C4.33 5.94 4.66 11.88 5 18 C6.65 18.33 8.3 18.66 10 19 C10.33 19.99 10.66 20.98 11 22 C9.10511048 23.89488952 6.42860854 23.18019112 3.91015625 23.23046875 C2 23 2 23 0 21 C-0.22705078 18.84521484 -0.22705078 18.84521484 -0.1953125 16.2109375 C-0.18886719 15.26992188 -0.18242187 14.32890625 -0.17578125 13.359375 C-0.15902344 12.37453125 -0.14226563 11.3896875 -0.125 10.375 C-0.11597656 9.38242187 -0.10695312 8.38984375 -0.09765625 7.3671875 C-0.07404116 4.91121866 -0.04110799 2.45572832 0 0 Z " fill="#0B9343" transform="translate(2,11)"/>
<path d="M0 0 C2.97 0.33 5.94 0.66 9 1 C9 2.32 9 3.64 9 5 C9.99 5 10.98 5 12 5 C12.3125 7.1875 12.3125 7.1875 12 10 C9.5 12.8125 9.5 12.8125 7 15 C6.896875 14.360625 6.79375 13.72125 6.6875 13.0625 C6.460625 12.381875 6.23375 11.70125 6 11 C5.01 10.67 4.02 10.34 3 10 C3 7.66666667 3 5.33333333 3 3 C2.01 2.67 1.02 2.34 0 2 C0 1.34 0 0.68 0 0 Z M8 7 C7.34 8.32 6.68 9.64 6 11 C6.99 10.34 7.98 9.68 9 9 C8.67 8.34 8.34 7.68 8 7 Z " fill="#6CB944" transform="translate(55,10)"/>
<path d="M0 0 C2.97 0.33 5.94 0.66 9 1 C9 2.32 9 3.64 9 5 C6.03 4.01 3.06 3.02 0 2 C0 1.34 0 0.68 0 0 Z " fill="#0D9442" transform="translate(55,10)"/>
<path d="M0 0 C1.65 0 3.3 0 5 0 C5 1.65 5 3.3 5 5 C3.35 4.67 1.7 4.34 0 4 C0 2.68 0 1.36 0 0 Z " fill="#91C843" transform="translate(59,5)"/>
<path d="M0 0 C0.66 0.66 1.32 1.32 2 2 C1.34 2 0.68 2 0 2 C0 1.34 0 0.68 0 0 Z " fill="#000000" transform="translate(7,37)"/>
<path d="M0 0 C0.66 0.66 1.32 1.32 2 2 C1.34 2 0.68 2 0 2 C0 1.34 0 0.68 0 0 Z " fill="#000000" transform="translate(2,37)"/>
</svg>
