<svg width="30" height="31" viewBox="0 0 30 31" fill="none" xmlns="http://www.w3.org/2000/svg">
<path d="M18.75 23.3018C18.375 23.3018 18.125 23.1768 17.875 22.9268C17.375 22.4268 17.375 21.6768 17.875 21.1768L24.125 14.9268C24.625 14.4268 25.375 14.4268 25.875 14.9268C26.375 15.4268 26.375 16.1768 25.875 16.6768L19.625 22.9268C19.375 23.1768 19.125 23.3018 18.75 23.3018Z" fill="#009444"/>
<path d="M25 17.0518C24.625 17.0518 24.375 16.9268 24.125 16.6768L17.875 10.4268C17.375 9.92676 17.375 9.17676 17.875 8.67676C18.375 8.17676 19.125 8.17676 19.625 8.67676L25.875 14.9268C26.375 15.4268 26.375 16.1768 25.875 16.6768C25.625 16.9268 25.375 17.0518 25 17.0518Z" fill="#009444"/>
<path d="M25 17.0518H5C4.25 17.0518 3.75 16.5518 3.75 15.8018C3.75 15.0518 4.25 14.5518 5 14.5518H25C25.75 14.5518 26.25 15.0518 26.25 15.8018C26.25 16.5518 25.75 17.0518 25 17.0518Z" fill="#009444"/>
</svg>
